# xmcd CD database file
#
# Track frame offsets:
#	150
#	13072
#	42305
#	75427
#	91461
#	110416
#	123224
#	155060
#	170531
#	183963
#	195857
#	209209
#	224802
#	237960
#	250233
#	275238
#
# Disc length: 4105 seconds
#
# Revision: 0
# Processed by: cddbd v1.5.1PL2 Copyright (c) Steve Scherf et al.
# Submitted via: CDex 1.51
#
DISCID=e8100710
DTITLE=Various Artist - Jazz Groups CD2
DYEAR=1900
DGENRE=Jazz
TTITLE0=Charlie Mingus - Gregorian Chant
TTITLE1=Curtis Fuller - Twelve-Inch
TTITLE2=Milt Jackson - The Lady Is A Tramp
TTITLE3=Red Norvo - September Song
TTITLE4=Charlie Mingus - Rose Geranium
TTITLE5=Stephane Grappelli - Nuage
TTITLE6=The Adderley Brothers - Caribbean Cutie
TTITLE7=Charlie Parker - Parker's Mood
TTITLE8=Milt Jackson - You Got To My Head
TTITLE9=Slam Stewart - That Old Black Magic
TTITLE10=MJQ - Round Midnight
TTITLE11=Art Pepper - What's New
TTITLE12=Slam Stewart - New Exercise In Swing
TTITLE13=Shelley Manne - Cathy
TTITLE14=Curtis Fuller - Blues-Ette
TTITLE15=Herbie Mann - Who Knew
EXTD=
EXTT0=
EXTT1=
EXTT2=
EXTT3=
EXTT4=
EXTT5=
EXTT6=
EXTT7=
EXTT8=
EXTT9=
EXTT10=
EXTT11=
EXTT12=
EXTT13=
EXTT14=
EXTT15=
PLAYORDER=
